<svg xmlns="http://www.w3.org/2000/svg" xmlns:xlink="http://www.w3.org/1999/xlink" xmlns:lucid="lucid" width="1760" height="1360"><g transform="translate(0 0)" lucid:page-tab-id="0_0"><path d="M0 0h1760v1360H0z" fill="#fff"/><path d="M650 168a8 8 0 0 1 8-8h264a8 8 0 0 1 8 8v248a8 8 0 0 1-8 8H658a8 8 0 0 1-8-8z" fill="#fff"/><path d="M650 168a8 8 0 0 1 8-8h264a8 8 0 0 1 8 8v248a8 8 0 0 1-8 8H658a8 8 0 0 1-8-8zM650 200h280M700 200v224M824.9 200v224" stroke="#333" fill="none"/><use xlink:href="#a" transform="matrix(1,0,0,1,660,160) translate(99.075 23.6)"/><use xlink:href="#b" transform="matrix(1,0,0,1,655,202.5) translate(0 17.1)"/><use xlink:href="#c" transform="matrix(1,0,0,1,705,202.5) translate(0 16.7)"/><use xlink:href="#d" transform="matrix(1,0,0,1,829.9060129126497,202.5) translate(0 17.1)"/><use xlink:href="#e" transform="matrix(1,0,0,1,705,234.5) translate(0 16.7)"/><use xlink:href="#f" transform="matrix(1,0,0,1,829.9060129126497,234.5) translate(0 16.7)"/><use xlink:href="#g" transform="matrix(1,0,0,1,705,266.5) translate(0 16.7)"/><use xlink:href="#h" transform="matrix(1,0,0,1,829.9060129126497,266.5) translate(0 16.7)"/><use xlink:href="#i" transform="matrix(1,0,0,1,705,298.5) translate(0 16.7)"/><use xlink:href="#d" transform="matrix(1,0,0,1,829.9060129126497,298.5) translate(0 17.1)"/><use xlink:href="#j" transform="matrix(1,0,0,1,705,330.5) translate(0 16.7)"/><use xlink:href="#d" transform="matrix(1,0,0,1,829.9060129126497,330.5) translate(0 17.1)"/><use xlink:href="#k" transform="matrix(1,0,0,1,705,362.5) translate(0 16.7)"/><use xlink:href="#f" transform="matrix(1,0,0,1,829.9060129126497,362.5) translate(0 16.7)"/><use xlink:href="#l" transform="matrix(1,0,0,1,705,394.5) translate(0 16.7)"/><use xlink:href="#m" transform="matrix(1,0,0,1,829.9060129126497,394.5) translate(0 16.7)"/><path d="M250 628.12a8 8 0 0 1 8-8h264a8 8 0 0 1 8 8v152a8 8 0 0 1-8 8H258a8 8 0 0 1-8-8z" fill="#fff"/><path d="M250 628.12a8 8 0 0 1 8-8h264a8 8 0 0 1 8 8v152a8 8 0 0 1-8 8H258a8 8 0 0 1-8-8zM250 660.12h280M297.44 660.12v128M412.74 660.12v128" stroke="#333" fill="none"/><use xlink:href="#n" transform="matrix(1,0,0,1,260,620.1171232121051) translate(112.025 23.6)"/><use xlink:href="#o" transform="matrix(1,0,0,1,255,662.6171232121051) translate(0 17.1)"/><use xlink:href="#p" transform="matrix(1,0,0,1,302.4353828430832,662.6171232121051) translate(0 17.233333333333334)"/><use xlink:href="#q" transform="matrix(1,0,0,1,417.73778236806857,662.6171232121051) translate(0 17.1)"/><use xlink:href="#r" transform="matrix(1,0,0,1,302.4353828430832,694.6171232121051) translate(0 17.233333333333334)"/><use xlink:href="#s" transform="matrix(1,0,0,1,417.73778236806857,694.6171232121051) translate(0 17.233333333333334)"/><use xlink:href="#t" transform="matrix(1,0,0,1,302.4353828430832,726.6171232121051) translate(0 17.233333333333334)"/><use xlink:href="#u" transform="matrix(1,0,0,1,417.73778236806857,726.6171232121051) translate(0 17.233333333333334)"/><use xlink:href="#v" transform="matrix(1,0,0,1,302.4353828430832,758.6171232121051) translate(0 17.233333333333334)"/><use xlink:href="#q" transform="matrix(1,0,0,1,417.73778236806857,758.6171232121051) translate(0 17.1)"/><path d="M1050 756.28a8 8 0 0 1 8-8h284a8 8 0 0 1 8 8v88a8 8 0 0 1-8 8h-284a8 8 0 0 1-8-8z" fill="#fff"/><path d="M1050 756.28a8 8 0 0 1 8-8h284a8 8 0 0 1 8 8v88a8 8 0 0 1-8 8h-284a8 8 0 0 1-8-8zM1050 788.28h300M1094.8 788.28v64M1238.03 788.28v64" stroke="#333" fill="none"/><use xlink:href="#w" transform="matrix(1,0,0,1,1060,748.2771146267663) translate(93.57499999999999 23.6)"/><use xlink:href="#x" transform="matrix(1,0,0,1,1055,790.7771146267663) translate(0 17.1)"/><use xlink:href="#y" transform="matrix(1,0,0,1,1099.8082309748197,790.7771146267663) translate(0 16.7)"/><use xlink:href="#z" transform="matrix(1,0,0,1,1243.0267583140364,790.7771146267663) translate(0 17.1)"/><use xlink:href="#A" transform="matrix(1,0,0,1,1099.8082309748197,822.7771146267663) translate(0 16.7)"/><use xlink:href="#B" transform="matrix(1,0,0,1,1243.0267583140364,822.7771146267663) translate(0 17.1)"/><path d="M640 568a8 8 0 0 1 8-8h284a8 8 0 0 1 8 8v248a8 8 0 0 1-8 8H648a8 8 0 0 1-8-8z" fill="#fff"/><path d="M640 568a8 8 0 0 1 8-8h284a8 8 0 0 1 8 8v248a8 8 0 0 1-8 8H648a8 8 0 0 1-8-8zM640 600h300M684.27 600v224M822.14 600v224" stroke="#333" fill="none"/><use xlink:href="#C" transform="matrix(1,0,0,1,650,560) translate(109.05 23.6)"/><use xlink:href="#x" transform="matrix(1,0,0,1,645,602.5) translate(0 17.1)"/><use xlink:href="#D" transform="matrix(1,0,0,1,689.269068917577,602.5) translate(0 16.7)"/><use xlink:href="#z" transform="matrix(1,0,0,1,827.1413367032444,602.5) translate(0 17.1)"/><use xlink:href="#E" transform="matrix(1,0,0,1,645,634.5) translate(0 17.1)"/><use xlink:href="#F" transform="matrix(1,0,0,1,689.269068917577,634.5) translate(0 16.7)"/><use xlink:href="#z" transform="matrix(1,0,0,1,827.1413367032444,634.5) translate(0 17.1)"/><use xlink:href="#E" transform="matrix(1,0,0,1,645,666.5) translate(0 17.1)"/><use xlink:href="#G" transform="matrix(1,0,0,1,689.269068917577,666.5) translate(0 16.7)"/><use xlink:href="#z" transform="matrix(1,0,0,1,827.1413367032444,666.5) translate(0 17.1)"/><use xlink:href="#E" transform="matrix(1,0,0,1,645,698.5) translate(0 17.1)"/><use xlink:href="#H" transform="matrix(1,0,0,1,689.269068917577,698.5) translate(0 16.7)"/><use xlink:href="#z" transform="matrix(1,0,0,1,827.1413367032444,698.5) translate(0 17.1)"/><use xlink:href="#E" transform="matrix(1,0,0,1,645,730.5) translate(0 17.1)"/><use xlink:href="#I" transform="matrix(1,0,0,1,689.269068917577,730.5) translate(0 16.7)"/><use xlink:href="#z" transform="matrix(1,0,0,1,827.1413367032444,730.5) translate(0 17.1)"/><use xlink:href="#J" transform="matrix(1,0,0,1,689.269068917577,762.5) translate(0 16.7)"/><use xlink:href="#z" transform="matrix(1,0,0,1,827.1413367032444,762.5) translate(0 17.1)"/><use xlink:href="#K" transform="matrix(1,0,0,1,689.269068917577,794.5) translate(0 16.7)"/><use xlink:href="#L" transform="matrix(1,0,0,1,827.1413367032444,794.5) translate(0 17.1)"/><path d="M250 868a8 8 0 0 1 8-8h264a8 8 0 0 1 8 8v184a8 8 0 0 1-8 8H258a8 8 0 0 1-8-8z" fill="#fff"/><path d="M250 868a8 8 0 0 1 8-8h264a8 8 0 0 1 8 8v184a8 8 0 0 1-8 8H258a8 8 0 0 1-8-8zM250 900h280M294.83 900v160M406.77 900v160" stroke="#333" fill="none"/><use xlink:href="#M" transform="matrix(1,0,0,1,260,860) translate(102 23.6)"/><use xlink:href="#x" transform="matrix(1,0,0,1,255,902.5) translate(0 17.1)"/><use xlink:href="#N" transform="matrix(1,0,0,1,299.829491226595,902.5) translate(0 16.7)"/><use xlink:href="#z" transform="matrix(1,0,0,1,411.7726834194069,902.5) translate(0 17.1)"/><use xlink:href="#O" transform="matrix(1,0,0,1,299.829491226595,934.5) translate(0 16.7)"/><use xlink:href="#L" transform="matrix(1,0,0,1,411.7726834194069,934.5) translate(0 17.1)"/><use xlink:href="#P" transform="matrix(1,0,0,1,299.829491226595,966.5) translate(0 16.7)"/><use xlink:href="#Q" transform="matrix(1,0,0,1,411.7726834194069,966.5) translate(0 17.1)"/><use xlink:href="#R" transform="matrix(1,0,0,1,299.829491226595,998.5) translate(0 16.7)"/><use xlink:href="#L" transform="matrix(1,0,0,1,411.7726834194069,998.5) translate(0 17.1)"/><use xlink:href="#S" transform="matrix(1,0,0,1,299.829491226595,1030.5) translate(0 16.7)"/><use xlink:href="#L" transform="matrix(1,0,0,1,411.7726834194069,1030.5) translate(0 17.1)"/><path d="M1060 599.84a8 8 0 0 1 8-8h244a8 8 0 0 1 8 8v88a8 8 0 0 1-8 8h-244a8 8 0 0 1-8-8z" fill="#fff"/><path d="M1060 599.84a8 8 0 0 1 8-8h244a8 8 0 0 1 8 8v88a8 8 0 0 1-8 8h-244a8 8 0 0 1-8-8zM1060 631.84h260M1105.4 631.84v64M1198.04 631.84v64" stroke="#333" fill="none"/><use xlink:href="#T" transform="matrix(1,0,0,1,1070,591.8379702851213) translate(102.875 23.6)"/><use xlink:href="#x" transform="matrix(1,0,0,1,1065,634.3379702851213) translate(0 17.1)"/><use xlink:href="#U" transform="matrix(1,0,0,1,1110.3899135356128,634.3379702851213) translate(0 16.7)"/><use xlink:href="#z" transform="matrix(1,0,0,1,1203.0423497998688,634.3379702851213) translate(0 17.1)"/><use xlink:href="#V" transform="matrix(1,0,0,1,1110.3899135356128,666.3379702851213) translate(0 16.7)"/><use xlink:href="#W" transform="matrix(1,0,0,1,1203.0423497998688,666.3379702851213) translate(0 17.1)"/><path d="M260 348a8 8 0 0 1 8-8h244a8 8 0 0 1 8 8v216a8 8 0 0 1-8 8H268a8 8 0 0 1-8-8z" fill="#fff"/><path d="M260 348a8 8 0 0 1 8-8h244a8 8 0 0 1 8 8v216a8 8 0 0 1-8 8H268a8 8 0 0 1-8-8zM260 380h260M307.7 380v192M438.04 380v192" stroke="#333" fill="none"/><use xlink:href="#X" transform="matrix(1,0,0,1,270,340) translate(76.07499999999999 23.6)"/><use xlink:href="#x" transform="matrix(1,0,0,1,265,382.5) translate(0 17.1)"/><use xlink:href="#Y" transform="matrix(1,0,0,1,312.70898801592205,382.5) translate(0 16.7)"/><use xlink:href="#z" transform="matrix(1,0,0,1,443.042349799869,382.5) translate(0 17.1)"/><use xlink:href="#E" transform="matrix(1,0,0,1,265,414.5) translate(0 17.1)"/><use xlink:href="#Z" transform="matrix(1,0,0,1,312.70898801592205,414.5) translate(0 16.7)"/><use xlink:href="#z" transform="matrix(1,0,0,1,443.042349799869,414.5) translate(0 17.1)"/><use xlink:href="#E" transform="matrix(1,0,0,1,265,446.5) translate(0 17.1)"/><use xlink:href="#aa" transform="matrix(1,0,0,1,312.70898801592205,446.5) translate(0 16.7)"/><use xlink:href="#z" transform="matrix(1,0,0,1,443.042349799869,446.5) translate(0 17.1)"/><use xlink:href="#ab" transform="matrix(1,0,0,1,312.70898801592205,478.5) translate(0 16.7)"/><use xlink:href="#ac" transform="matrix(1,0,0,1,443.042349799869,478.5) translate(0 17.1)"/><use xlink:href="#ad" transform="matrix(1,0,0,1,312.70898801592205,510.5) translate(0 16.7)"/><use xlink:href="#ac" transform="matrix(1,0,0,1,443.042349799869,510.5) translate(0 17.1)"/><use xlink:href="#ae" transform="matrix(1,0,0,1,312.70898801592205,542.5) translate(0 16.7)"/><use xlink:href="#z" transform="matrix(1,0,0,1,443.042349799869,542.5) translate(0 17.1)"/><path d="M1040 167.78a8 8 0 0 1 8-8h224a8 8 0 0 1 8 8v120a8 8 0 0 1-8 8h-224a8 8 0 0 1-8-8z" fill="#fff"/><path d="M1040 167.78a8 8 0 0 1 8-8h224a8 8 0 0 1 8 8v120a8 8 0 0 1-8 8h-224a8 8 0 0 1-8-8zM1040 199.78h240M1100 199.78v96M1220 199.78v96" stroke="#333" fill="none"/><use xlink:href="#af" transform="matrix(1,0,0,1,1050,159.7786112709441) translate(72.57499999999999 23.6)"/><use xlink:href="#x" transform="matrix(1,0,0,1,1045,202.2786112709441) translate(0 17.1)"/><use xlink:href="#ag" transform="matrix(1,0,0,1,1105,202.2786112709441) translate(0 16.7)"/><use xlink:href="#z" transform="matrix(1,0,0,1,1225,202.2786112709441) translate(0 17.1)"/><use xlink:href="#E" transform="matrix(1,0,0,1,1045,234.2786112709441) translate(0 17.1)"/><use xlink:href="#ah" transform="matrix(1,0,0,1,1105,234.2786112709441) translate(0 16.7)"/><use xlink:href="#z" transform="matrix(1,0,0,1,1225,234.2786112709441) translate(0 17.1)"/><use xlink:href="#E" transform="matrix(1,0,0,1,1045,266.2786112709441) translate(0 17.1)"/><use xlink:href="#aa" transform="matrix(1,0,0,1,1105,266.2786112709441) translate(0 16.7)"/><use xlink:href="#z" transform="matrix(1,0,0,1,1225,266.2786112709441) translate(0 17.1)"/><path d="M540.5 492.14H568a12 12 0 0 1 12 12v99.6a12 12 0 0 0 12 12h27.5" stroke="#333" fill="none"/><path d="M530.5 502.14v-20M520.5 492.14h20M540.5 502.14v-20M629.5 605.75v20M639.5 615.75h-20M619.5 605.75v20" stroke="#333" fill="#fff"/><path d="M239.5 427.9h-18a12 12 0 0 0-12 12V664a12 12 0 0 0 12 12h8" stroke="#333" fill="none"/><path d="M249.5 417.9v20M259.5 427.9h-20M239.5 417.9v20M239.5 666.02v20M249.5 676.02h-20M229.5 666.02v20" stroke="#333" fill="#fff"/><path d="M960.5 744.17H983a12 12 0 0 1 12 12v36.12a12 12 0 0 0 12 12h22.5" stroke="#333" fill="none"/><path d="M960.5 754.17v-20M940.5 744.17h20" stroke="#333" fill="#fff"/><path d="M1049.28 814.3l-20-10 20-10" stroke="#333" fill="#fff" fill-opacity="0"/><path d="M1049.28 804.3h-20M1029.28 794.3v20" stroke="#333" fill="#fff"/><path d="M1160 316.28V378a12 12 0 0 1-12 12h-116.5a12 12 0 0 0-12 12v201.75a12 12 0 0 1-12 12h-47" stroke="#333" fill="none"/><path d="M1170 296.5l-10 20-10-20" stroke="#333" fill="#fff" fill-opacity="0"/><path d="M1160 296.5v20M1150 316.5h20M960.5 625.75v-20M940.5 615.75h20" stroke="#333" fill="#fff"/><path d="M960.5 647.85h79" stroke="#333" fill="none"/><path d="M960.5 657.85v-20M940.5 647.85h20" stroke="#333" fill="#fff"/><path d="M1059.28 657.85l-20-10 20-10" stroke="#333" fill="#fff" fill-opacity="0"/><path d="M1059.28 647.85h-20M1039.28 637.85v20" stroke="#333" fill="#fff"/><path d="M619.5 679.96H597a12 12 0 0 0-12 12v211.88a12 12 0 0 1-12 12h-22.5" stroke="#333" fill="none"/><path d="M639.28 689.96l-20-10 20-10" stroke="#333" fill="#fff" fill-opacity="0"/><path d="M639.28 679.96h-20M619.28 669.96v20" stroke="#333" fill="#fff"/><path d="M530.72 905.84l20 10-20 10" stroke="#333" fill="#fff" fill-opacity="0"/><path d="M530.72 915.84h20M550.72 925.84v-20" stroke="#333" fill="#fff"/><path d="M970 215.73h49.5" stroke="#333" fill="none"/><path d="M940.5 225.73v-20M930.5 215.73h20M970.5 215.73c0 5.52-4.48 10-10 10s-10-4.48-10-10 4.48-10 10-10 10 4.48 10 10M1019.5 205.73v20M1039.5 215.73h-20" stroke="#333" fill="#fff"/><path d="M790 444.5v95" stroke="#333" fill="none"/><path d="M780 434.5h20M790 424.5v20M780 444.5h20M800 549.5h-20M790 559.5v-20M800 539.5h-20" stroke="#333" fill="#fff"/><defs><path fill="#333" d="M232-93c-1 65-40 97-104 97C67 4 28-28 28-90v-158h33c8 89-33 224 67 224 102 0 64-133 71-224h33v155" id="ai"/><path fill="#333" d="M135-143c-3-34-86-38-87 0 15 53 115 12 119 90S17 21 10-45l28-5c4 36 97 45 98 0-10-56-113-15-118-90-4-57 82-63 122-42 12 7 21 19 24 35" id="aj"/><path fill="#333" d="M84 4C-5 8 30-112 23-190h32v120c0 31 7 50 39 49 72-2 45-101 50-169h31l1 190h-30c-1-10 1-25-2-33-11 22-28 36-60 37" id="ak"/><path fill="#333" d="M141-36C126-15 110 5 73 4 37 3 15-17 15-53c-1-64 63-63 125-63 3-35-9-54-41-54-24 1-41 7-42 31l-33-3c5-37 33-52 76-52 45 0 72 20 72 64v82c-1 20 7 32 28 27v20c-31 9-61-2-59-35zM48-53c0 20 12 33 32 33 41-3 63-29 60-74-43 2-92-5-92 41zm25-158c8-23 27-35 38-54h36v5l-58 49H73" id="al"/><path fill="#333" d="M114-163C36-179 61-72 57 0H25l-1-190h30c1 12-1 29 2 39 6-27 23-49 58-41v29" id="am"/><path fill="#333" d="M24-231v-30h32v30H24zM24 0v-190h32V0H24" id="an"/><path fill="#333" d="M100-194c62-1 85 37 85 99 1 63-27 99-86 99S16-35 15-95c0-66 28-99 85-99zM99-20c44 1 53-31 53-75 0-43-8-75-51-75s-53 32-53 75 10 74 51 75" id="ao"/><g id="a"><use transform="matrix(0.04999999999999999,0,0,0.04999999999999999,0,0)" xlink:href="#ai"/><use transform="matrix(0.04999999999999999,0,0,0.04999999999999999,12.949999999999998,0)" xlink:href="#aj"/><use transform="matrix(0.04999999999999999,0,0,0.04999999999999999,21.949999999999996,0)" xlink:href="#ak"/><use transform="matrix(0.04999999999999999,0,0,0.04999999999999999,31.949999999999992,0)" xlink:href="#al"/><use transform="matrix(0.04999999999999999,0,0,0.04999999999999999,41.949999999999996,0)" xlink:href="#am"/><use transform="matrix(0.04999999999999999,0,0,0.04999999999999999,47.89999999999999,0)" xlink:href="#an"/><use transform="matrix(0.04999999999999999,0,0,0.04999999999999999,51.85,0)" xlink:href="#ao"/></g><path fill="#333" d="M30-248c87 1 191-15 191 75 0 78-77 80-158 76V0H30v-248zm33 125c57 0 124 11 124-50 0-59-68-47-124-48v98" id="ap"/><path fill="#333" d="M194 0L95-120 63-95V0H30v-248h33v124l119-124h40L117-140 236 0h-42" id="aq"/><g id="b"><use transform="matrix(0.04999999999999999,0,0,0.04999999999999999,0,0)" xlink:href="#ap"/><use transform="matrix(0.04999999999999999,0,0,0.04999999999999999,11.999999999999996,0)" xlink:href="#aq"/></g><path d="M115-194c55 1 70 41 70 98S169 2 115 4C84 4 66-9 55-30l1 105H24l-1-265h31l2 30c10-21 28-34 59-34zm-8 174c40 0 45-34 45-75s-6-73-45-74c-42 0-51 32-51 76 0 43 10 73 51 73" id="ar"/><path d="M143 0L79-87 56-68V0H24v-261h32v163l83-92h37l-77 82L181 0h-38" id="as"/><path d="M-5 72V49h209v23H-5" id="at"/><path d="M96-169c-40 0-48 33-48 73s9 75 48 75c24 0 41-14 43-38l32 2c-6 37-31 61-74 61-59 0-76-41-82-99-10-93 101-131 147-64 4 7 5 14 7 22l-32 3c-4-21-16-35-41-35" id="au"/><path d="M101-234c-31-9-42 10-38 44h38v23H63V0H32v-167H5v-23h27c-7-52 17-82 69-68v24" id="av"/><path d="M232-93c-1 65-40 97-104 97C67 4 28-28 28-90v-158h33c8 89-33 224 67 224 102 0 64-133 71-224h33v155" id="aw"/><path d="M135-143c-3-34-86-38-87 0 15 53 115 12 119 90S17 21 10-45l28-5c4 36 97 45 98 0-10-56-113-15-118-90-4-57 82-63 122-42 12 7 21 19 24 35" id="ax"/><path d="M84 4C-5 8 30-112 23-190h32v120c0 31 7 50 39 49 72-2 45-101 50-169h31l1 190h-30c-1-10 1-25-2-33-11 22-28 36-60 37" id="ay"/><path d="M141-36C126-15 110 5 73 4 37 3 15-17 15-53c-1-64 63-63 125-63 3-35-9-54-41-54-24 1-41 7-42 31l-33-3c5-37 33-52 76-52 45 0 72 20 72 64v82c-1 20 7 32 28 27v20c-31 9-61-2-59-35zM48-53c0 20 12 33 32 33 41-3 63-29 60-74-43 2-92-5-92 41" id="az"/><path d="M114-163C36-179 61-72 57 0H25l-1-190h30c1 12-1 29 2 39 6-27 23-49 58-41v29" id="aA"/><path d="M24-231v-30h32v30H24zM24 0v-190h32V0H24" id="aB"/><path d="M100-194c62-1 85 37 85 99 1 63-27 99-86 99S16-35 15-95c0-66 28-99 85-99zM99-20c44 1 53-31 53-75 0-43-8-75-51-75s-53 32-53 75 10 74 51 75" id="aC"/><g id="c"><use transform="matrix(0.044444444444444446,0,0,0.044444444444444446,0,0)" xlink:href="#ar"/><use transform="matrix(0.044444444444444446,0,0,0.044444444444444446,8.88888888888889,0)" xlink:href="#as"/><use transform="matrix(0.044444444444444446,0,0,0.044444444444444446,16.88888888888889,0)" xlink:href="#at"/><use transform="matrix(0.044444444444444446,0,0,0.044444444444444446,25.77777777777778,0)" xlink:href="#au"/><use transform="matrix(0.044444444444444446,0,0,0.044444444444444446,33.77777777777778,0)" xlink:href="#ar"/><use transform="matrix(0.044444444444444446,0,0,0.044444444444444446,42.66666666666667,0)" xlink:href="#av"/><use transform="matrix(0.044444444444444446,0,0,0.044444444444444446,47.111111111111114,0)" xlink:href="#aw"/><use transform="matrix(0.044444444444444446,0,0,0.044444444444444446,58.62222222222223,0)" xlink:href="#ax"/><use transform="matrix(0.044444444444444446,0,0,0.044444444444444446,66.62222222222223,0)" xlink:href="#ay"/><use transform="matrix(0.044444444444444446,0,0,0.044444444444444446,75.51111111111112,0)" xlink:href="#az"/><use transform="matrix(0.044444444444444446,0,0,0.044444444444444446,84.4,0)" xlink:href="#aA"/><use transform="matrix(0.044444444444444446,0,0,0.044444444444444446,89.6888888888889,0)" xlink:href="#aB"/><use transform="matrix(0.044444444444444446,0,0,0.044444444444444446,93.2,0)" xlink:href="#aC"/></g><path fill="#333" d="M117-194c89-4 53 116 60 194h-32v-121c0-31-8-49-39-48C34-167 62-67 57 0H25l-1-190h30c1 10-1 24 2 32 11-22 29-35 61-36" id="aD"/><path fill="#333" d="M59-47c-2 24 18 29 38 22v24C64 9 27 4 27-40v-127H5v-23h24l9-43h21v43h35v23H59v120" id="aE"/><g id="d"><use transform="matrix(0.04999999999999999,0,0,0.04999999999999999,0,0)" xlink:href="#an"/><use transform="matrix(0.04999999999999999,0,0,0.04999999999999999,3.9499999999999993,0)" xlink:href="#aD"/><use transform="matrix(0.04999999999999999,0,0,0.04999999999999999,13.949999999999998,0)" xlink:href="#aE"/></g><path d="M117-194c89-4 53 116 60 194h-32v-121c0-31-8-49-39-48C34-167 62-67 57 0H25l-1-190h30c1 10-1 24 2 32 11-22 29-35 61-36" id="aF"/><path d="M210-169c-67 3-38 105-44 169h-31v-121c0-29-5-50-35-48C34-165 62-65 56 0H25l-1-190h30c1 10-1 24 2 32 10-44 99-50 107 0 11-21 27-35 58-36 85-2 47 119 55 194h-31v-121c0-29-5-49-35-48" id="aG"/><path d="M100-194c63 0 86 42 84 106H49c0 40 14 67 53 68 26 1 43-12 49-29l28 8c-11 28-37 45-77 45C44 4 14-33 15-96c1-61 26-98 85-98zm52 81c6-60-76-77-97-28-3 7-6 17-6 28h103" id="aH"/><g id="e"><use transform="matrix(0.044444444444444446,0,0,0.044444444444444446,0,0)" xlink:href="#aF"/><use transform="matrix(0.044444444444444446,0,0,0.044444444444444446,8.88888888888889,0)" xlink:href="#aC"/><use transform="matrix(0.044444444444444446,0,0,0.044444444444444446,17.77777777777778,0)" xlink:href="#aG"/><use transform="matrix(0.044444444444444446,0,0,0.044444444444444446,31.066666666666666,0)" xlink:href="#aH"/><use transform="matrix(0.044444444444444446,0,0,0.044444444444444446,39.95555555555556,0)" xlink:href="#aw"/><use transform="matrix(0.044444444444444446,0,0,0.044444444444444446,51.466666666666676,0)" xlink:href="#ax"/><use transform="matrix(0.044444444444444446,0,0,0.044444444444444446,59.466666666666676,0)" xlink:href="#ay"/><use transform="matrix(0.044444444444444446,0,0,0.044444444444444446,68.35555555555557,0)" xlink:href="#az"/><use transform="matrix(0.044444444444444446,0,0,0.044444444444444446,77.24444444444445,0)" xlink:href="#aA"/><use transform="matrix(0.044444444444444446,0,0,0.044444444444444446,82.53333333333335,0)" xlink:href="#aB"/><use transform="matrix(0.044444444444444446,0,0,0.044444444444444446,86.04444444444445,0)" xlink:href="#aC"/></g><path d="M108 0H70L1-190h34L89-25l56-165h34" id="aI"/><path d="M106-169C34-169 62-67 57 0H25v-261h32l-1 103c12-21 28-36 61-36 89 0 53 116 60 194h-32v-121c2-32-8-49-39-48" id="aJ"/><path d="M87 75C49 33 22-17 22-94c0-76 28-126 65-167h31c-38 41-64 92-64 168S80 34 118 75H87" id="aK"/><path d="M101-251c82-7 93 87 43 132L82-64C71-53 59-42 53-27h129V0H18c2-99 128-94 128-182 0-28-16-43-45-43s-46 15-49 41l-32-3c6-41 34-60 81-64" id="aL"/><path d="M54-142c48-35 137-8 131 61C196 18 31 33 14-55l32-4c7 23 22 37 52 37 35-1 51-22 54-58 4-55-73-65-99-34H22l8-134h141v27H59" id="aM"/><path d="M110-160c48 1 74 30 74 79 0 53-28 85-80 85-65 0-83-55-86-122-5-90 50-162 133-122 14 7 22 21 27 39l-31 6c-5-40-67-38-82-6-9 19-15 44-15 74 11-20 30-34 60-33zm-7 138c34 0 49-23 49-58s-16-56-50-56c-29 0-50 16-49 49 1 36 15 65 50 65" id="aN"/><path d="M33-261c38 41 65 92 65 168S71 34 33 75H2C39 34 66-17 66-93S39-220 2-261h31" id="aO"/><g id="f"><use transform="matrix(0.044444444444444446,0,0,0.044444444444444446,0,0)" xlink:href="#aI"/><use transform="matrix(0.044444444444444446,0,0,0.044444444444444446,8,0)" xlink:href="#az"/><use transform="matrix(0.044444444444444446,0,0,0.044444444444444446,16.88888888888889,0)" xlink:href="#aA"/><use transform="matrix(0.044444444444444446,0,0,0.044444444444444446,22.177777777777777,0)" xlink:href="#au"/><use transform="matrix(0.044444444444444446,0,0,0.044444444444444446,30.17777777777778,0)" xlink:href="#aJ"/><use transform="matrix(0.044444444444444446,0,0,0.044444444444444446,39.06666666666666,0)" xlink:href="#az"/><use transform="matrix(0.044444444444444446,0,0,0.044444444444444446,47.95555555555555,0)" xlink:href="#aA"/><use transform="matrix(0.044444444444444446,0,0,0.044444444444444446,53.24444444444443,0)" xlink:href="#aK"/><use transform="matrix(0.044444444444444446,0,0,0.044444444444444446,58.53333333333334,0)" xlink:href="#aL"/><use transform="matrix(0.044444444444444446,0,0,0.044444444444444446,67.42222222222222,0)" xlink:href="#aM"/><use transform="matrix(0.044444444444444446,0,0,0.044444444444444446,76.3111111111111,0)" xlink:href="#aN"/><use transform="matrix(0.044444444444444446,0,0,0.044444444444444446,85.19999999999999,0)" xlink:href="#aO"/></g><path d="M30-248c87 1 191-15 191 75 0 78-77 80-158 76V0H30v-248zm33 125c57 0 124 11 124-50 0-59-68-47-124-48v98" id="aP"/><g id="g"><use transform="matrix(0.044444444444444446,0,0,0.044444444444444446,0,0)" xlink:href="#aB"/><use transform="matrix(0.044444444444444446,0,0,0.044444444444444446,3.511111111111111,0)" xlink:href="#ax"/><use transform="matrix(0.044444444444444446,0,0,0.044444444444444446,11.511111111111111,0)" xlink:href="#aP"/><use transform="matrix(0.044444444444444446,0,0,0.044444444444444446,22.177777777777777,0)" xlink:href="#aA"/><use transform="matrix(0.044444444444444446,0,0,0.044444444444444446,27.46666666666666,0)" xlink:href="#aC"/><use transform="matrix(0.044444444444444446,0,0,0.044444444444444446,36.355555555555554,0)" xlink:href="#av"/></g><path d="M115-194c53 0 69 39 70 98 0 66-23 100-70 100C84 3 66-7 56-30L54 0H23l1-261h32v101c10-23 28-34 59-34zm-8 174c40 0 45-34 45-75 0-40-5-75-45-74-42 0-51 32-51 76 0 43 10 73 51 73" id="aQ"/><path d="M24 0v-261h32V0H24" id="aR"/><g id="h"><use transform="matrix(0.044444444444444446,0,0,0.044444444444444446,0,0)" xlink:href="#aQ"/><use transform="matrix(0.044444444444444446,0,0,0.044444444444444446,8.88888888888889,0)" xlink:href="#aC"/><use transform="matrix(0.044444444444444446,0,0,0.044444444444444446,17.77777777777778,0)" xlink:href="#aC"/><use transform="matrix(0.044444444444444446,0,0,0.044444444444444446,26.666666666666668,0)" xlink:href="#aR"/><use transform="matrix(0.044444444444444446,0,0,0.044444444444444446,30.17777777777778,0)" xlink:href="#aH"/><use transform="matrix(0.044444444444444446,0,0,0.044444444444444446,39.06666666666666,0)" xlink:href="#az"/><use transform="matrix(0.044444444444444446,0,0,0.044444444444444446,47.95555555555555,0)" xlink:href="#aF"/></g><path d="M59-47c-2 24 18 29 38 22v24C64 9 27 4 27-40v-127H5v-23h24l9-43h21v43h35v23H59v120" id="aS"/><g id="i"><use transform="matrix(0.044444444444444446,0,0,0.044444444444444446,0,0)" xlink:href="#aG"/><use transform="matrix(0.044444444444444446,0,0,0.044444444444444446,13.28888888888889,0)" xlink:href="#az"/><use transform="matrix(0.044444444444444446,0,0,0.044444444444444446,22.177777777777777,0)" xlink:href="#aS"/><use transform="matrix(0.044444444444444446,0,0,0.044444444444444446,26.622222222222216,0)" xlink:href="#aA"/><use transform="matrix(0.044444444444444446,0,0,0.044444444444444446,31.911111111111108,0)" xlink:href="#aB"/><use transform="matrix(0.044444444444444446,0,0,0.044444444444444446,35.42222222222222,0)" xlink:href="#au"/><use transform="matrix(0.044444444444444446,0,0,0.044444444444444446,43.42222222222222,0)" xlink:href="#ay"/><use transform="matrix(0.044444444444444446,0,0,0.044444444444444446,52.3111111111111,0)" xlink:href="#aR"/><use transform="matrix(0.044444444444444446,0,0,0.044444444444444446,55.822222222222216,0)" xlink:href="#az"/></g><g id="j"><use transform="matrix(0.044444444444444446,0,0,0.044444444444444446,0,0)" xlink:href="#aS"/><use transform="matrix(0.044444444444444446,0,0,0.044444444444444446,4.444444444444445,0)" xlink:href="#aH"/><use transform="matrix(0.044444444444444446,0,0,0.044444444444444446,13.333333333333334,0)" xlink:href="#aR"/><use transform="matrix(0.044444444444444446,0,0,0.044444444444444446,16.844444444444445,0)" xlink:href="#aH"/><use transform="matrix(0.044444444444444446,0,0,0.044444444444444446,25.733333333333334,0)" xlink:href="#av"/><use transform="matrix(0.044444444444444446,0,0,0.044444444444444446,30.17777777777778,0)" xlink:href="#aC"/><use transform="matrix(0.044444444444444446,0,0,0.044444444444444446,39.06666666666666,0)" xlink:href="#aF"/><use transform="matrix(0.044444444444444446,0,0,0.044444444444444446,47.95555555555555,0)" xlink:href="#aH"/></g><g id="k"><use transform="matrix(0.044444444444444446,0,0,0.044444444444444446,0,0)" xlink:href="#aH"/><use transform="matrix(0.044444444444444446,0,0,0.044444444444444446,8.88888888888889,0)" xlink:href="#aG"/><use transform="matrix(0.044444444444444446,0,0,0.044444444444444446,22.177777777777777,0)" xlink:href="#az"/><use transform="matrix(0.044444444444444446,0,0,0.044444444444444446,31.066666666666666,0)" xlink:href="#aB"/><use transform="matrix(0.044444444444444446,0,0,0.044444444444444446,34.577777777777776,0)" xlink:href="#aR"/></g><g id="l"><use transform="matrix(0.044444444444444446,0,0,0.044444444444444446,0,0)" xlink:href="#ax"/><use transform="matrix(0.044444444444444446,0,0,0.044444444444444446,8,0)" xlink:href="#aH"/><use transform="matrix(0.044444444444444446,0,0,0.044444444444444446,16.88888888888889,0)" xlink:href="#aF"/><use transform="matrix(0.044444444444444446,0,0,0.044444444444444446,25.77777777777778,0)" xlink:href="#aJ"/><use transform="matrix(0.044444444444444446,0,0,0.044444444444444446,34.66666666666667,0)" xlink:href="#az"/></g><path d="M155-56V0h-30v-56H8v-25l114-167h33v167h35v25h-35zm-30-156c-27 46-58 90-88 131h88v-131" id="aT"/><g id="m"><use transform="matrix(0.044444444444444446,0,0,0.044444444444444446,0,0)" xlink:href="#aI"/><use transform="matrix(0.044444444444444446,0,0,0.044444444444444446,8,0)" xlink:href="#az"/><use transform="matrix(0.044444444444444446,0,0,0.044444444444444446,16.88888888888889,0)" xlink:href="#aA"/><use transform="matrix(0.044444444444444446,0,0,0.044444444444444446,22.177777777777777,0)" xlink:href="#au"/><use transform="matrix(0.044444444444444446,0,0,0.044444444444444446,30.17777777777778,0)" xlink:href="#aJ"/><use transform="matrix(0.044444444444444446,0,0,0.044444444444444446,39.06666666666666,0)" xlink:href="#az"/><use transform="matrix(0.044444444444444446,0,0,0.044444444444444446,47.95555555555555,0)" xlink:href="#aA"/><use transform="matrix(0.044444444444444446,0,0,0.044444444444444446,53.24444444444443,0)" xlink:href="#aK"/><use transform="matrix(0.044444444444444446,0,0,0.044444444444444446,58.53333333333334,0)" xlink:href="#aL"/><use transform="matrix(0.044444444444444446,0,0,0.044444444444444446,67.42222222222222,0)" xlink:href="#aT"/><use transform="matrix(0.044444444444444446,0,0,0.044444444444444446,76.3111111111111,0)" xlink:href="#aO"/></g><path d="M185-189c-5-48-123-54-124 2 14 75 158 14 163 119 3 78-121 87-175 55-17-10-28-26-33-46l33-7c5 56 141 63 141-1 0-78-155-14-162-118-5-82 145-84 179-34 5 7 8 16 11 25" id="aU"/><g id="n"><use transform="matrix(0.05,0,0,0.05,0,0)" xlink:href="#aU"/><use transform="matrix(0.05,0,0,0.05,12,0)" xlink:href="#az"/><use transform="matrix(0.05,0,0,0.05,22,0)" xlink:href="#aR"/><use transform="matrix(0.05,0,0,0.05,25.950000000000003,0)" xlink:href="#az"/></g><path d="M194 0L95-120 63-95V0H30v-248h33v124l119-124h40L117-140 236 0h-42" id="aV"/><g id="o"><use transform="matrix(0.05,0,0,0.05,0,0)" xlink:href="#aP"/><use transform="matrix(0.05,0,0,0.05,12,0)" xlink:href="#aV"/></g><path d="M85-194c31 0 48 13 60 33l-1-100h32l1 261h-30c-2-10 0-23-3-31C134-8 116 4 85 4 32 4 16-35 15-94c0-66 23-100 70-100zm9 24c-40 0-46 34-46 75 0 40 6 74 45 74 42 0 51-32 51-76 0-42-9-74-50-73" id="aW"/><g id="p"><use transform="matrix(0.05185185185185186,0,0,0.05185185185185186,0,0)" xlink:href="#ar"/><use transform="matrix(0.05185185185185186,0,0,0.05185185185185186,10.370370370370372,0)" xlink:href="#as"/><use transform="matrix(0.05185185185185186,0,0,0.05185185185185186,19.703703703703706,0)" xlink:href="#at"/><use transform="matrix(0.05185185185185186,0,0,0.05185185185185186,30.074074074074076,0)" xlink:href="#aB"/><use transform="matrix(0.05185185185185186,0,0,0.05185185185185186,34.17037037037037,0)" xlink:href="#aW"/><use transform="matrix(0.05185185185185186,0,0,0.05185185185185186,44.540740740740745,0)" xlink:href="#aU"/><use transform="matrix(0.05185185185185186,0,0,0.05185185185185186,56.985185185185195,0)" xlink:href="#az"/><use transform="matrix(0.05185185185185186,0,0,0.05185185185185186,67.35555555555555,0)" xlink:href="#aR"/><use transform="matrix(0.05185185185185186,0,0,0.05185185185185186,71.45185185185186,0)" xlink:href="#az"/></g><g id="q"><use transform="matrix(0.05,0,0,0.05,0,0)" xlink:href="#aB"/><use transform="matrix(0.05,0,0,0.05,3.95,0)" xlink:href="#aF"/><use transform="matrix(0.05,0,0,0.05,13.949999999999998,0)" xlink:href="#aS"/></g><path d="M190 0L58-211 59 0H30v-248h39L202-35l-2-213h31V0h-41" id="aX"/><g id="r"><use transform="matrix(0.05185185185185186,0,0,0.05185185185185186,0,0)" xlink:href="#ax"/><use transform="matrix(0.05185185185185186,0,0,0.05185185185185186,9.333333333333334,0)" xlink:href="#az"/><use transform="matrix(0.05185185185185186,0,0,0.05185185185185186,19.703703703703706,0)" xlink:href="#aR"/><use transform="matrix(0.05185185185185186,0,0,0.05185185185185186,23.800000000000004,0)" xlink:href="#az"/><use transform="matrix(0.05185185185185186,0,0,0.05185185185185186,34.17037037037038,0)" xlink:href="#aX"/><use transform="matrix(0.05185185185185186,0,0,0.05185185185185186,47.60000000000001,0)" xlink:href="#ay"/><use transform="matrix(0.05185185185185186,0,0,0.05185185185185186,57.970370370370375,0)" xlink:href="#aG"/><use transform="matrix(0.05185185185185186,0,0,0.05185185185185186,73.47407407407408,0)" xlink:href="#aH"/><use transform="matrix(0.05185185185185186,0,0,0.05185185185185186,83.84444444444445,0)" xlink:href="#aA"/><use transform="matrix(0.05185185185185186,0,0,0.05185185185185186,90.01481481481483,0)" xlink:href="#aC"/></g><g id="s"><use transform="matrix(0.05185185185185186,0,0,0.05185185185185186,0,0)" xlink:href="#aI"/><use transform="matrix(0.05185185185185186,0,0,0.05185185185185186,9.333333333333334,0)" xlink:href="#az"/><use transform="matrix(0.05185185185185186,0,0,0.05185185185185186,19.703703703703706,0)" xlink:href="#aA"/><use transform="matrix(0.05185185185185186,0,0,0.05185185185185186,25.874074074074077,0)" xlink:href="#au"/><use transform="matrix(0.05185185185185186,0,0,0.05185185185185186,35.20740740740741,0)" xlink:href="#aJ"/><use transform="matrix(0.05185185185185186,0,0,0.05185185185185186,45.57777777777778,0)" xlink:href="#az"/><use transform="matrix(0.05185185185185186,0,0,0.05185185185185186,55.94814814814816,0)" xlink:href="#aA"/><use transform="matrix(0.05185185185185186,0,0,0.05185185185185186,62.11851851851853,0)" xlink:href="#aK"/><use transform="matrix(0.05185185185185186,0,0,0.05185185185185186,68.28888888888889,0)" xlink:href="#aT"/><use transform="matrix(0.05185185185185186,0,0,0.05185185185185186,78.65925925925926,0)" xlink:href="#aO"/></g><g id="t"><use transform="matrix(0.05185185185185186,0,0,0.05185185185185186,0,0)" xlink:href="#ax"/><use transform="matrix(0.05185185185185186,0,0,0.05185185185185186,9.333333333333334,0)" xlink:href="#az"/><use transform="matrix(0.05185185185185186,0,0,0.05185185185185186,19.703703703703706,0)" xlink:href="#aR"/><use transform="matrix(0.05185185185185186,0,0,0.05185185185185186,23.800000000000004,0)" xlink:href="#az"/><use transform="matrix(0.05185185185185186,0,0,0.05185185185185186,34.17037037037038,0)" xlink:href="#aX"/><use transform="matrix(0.05185185185185186,0,0,0.05185185185185186,47.60000000000001,0)" xlink:href="#aC"/><use transform="matrix(0.05185185185185186,0,0,0.05185185185185186,57.970370370370375,0)" xlink:href="#aG"/><use transform="matrix(0.05185185185185186,0,0,0.05185185185185186,73.47407407407408,0)" xlink:href="#aH"/></g><path d="M27 0v-27h64v-190l-56 39v-29l58-41h29v221h61V0H27" id="aY"/><path d="M101-251c68 0 85 55 85 127S166 4 100 4C33 4 14-52 14-124c0-73 17-127 87-127zm-1 229c47 0 54-49 54-102s-4-102-53-102c-51 0-55 48-55 102 0 53 5 102 54 102" id="aZ"/><g id="u"><use transform="matrix(0.05185185185185186,0,0,0.05185185185185186,0,0)" xlink:href="#aI"/><use transform="matrix(0.05185185185185186,0,0,0.05185185185185186,9.333333333333334,0)" xlink:href="#az"/><use transform="matrix(0.05185185185185186,0,0,0.05185185185185186,19.703703703703706,0)" xlink:href="#aA"/><use transform="matrix(0.05185185185185186,0,0,0.05185185185185186,25.874074074074077,0)" xlink:href="#au"/><use transform="matrix(0.05185185185185186,0,0,0.05185185185185186,35.20740740740741,0)" xlink:href="#aJ"/><use transform="matrix(0.05185185185185186,0,0,0.05185185185185186,45.57777777777778,0)" xlink:href="#az"/><use transform="matrix(0.05185185185185186,0,0,0.05185185185185186,55.94814814814816,0)" xlink:href="#aA"/><use transform="matrix(0.05185185185185186,0,0,0.05185185185185186,62.11851851851853,0)" xlink:href="#aK"/><use transform="matrix(0.05185185185185186,0,0,0.05185185185185186,68.28888888888889,0)" xlink:href="#aY"/><use transform="matrix(0.05185185185185186,0,0,0.05185185185185186,78.65925925925926,0)" xlink:href="#aZ"/><use transform="matrix(0.05185185185185186,0,0,0.05185185185185186,89.02962962962962,0)" xlink:href="#aZ"/><use transform="matrix(0.05185185185185186,0,0,0.05185185185185186,99.39999999999999,0)" xlink:href="#aO"/></g><g id="v"><use transform="matrix(0.05185185185185186,0,0,0.05185185185185186,0,0)" xlink:href="#au"/><use transform="matrix(0.05185185185185186,0,0,0.05185185185185186,9.333333333333334,0)" xlink:href="#az"/><use transform="matrix(0.05185185185185186,0,0,0.05185185185185186,19.703703703703706,0)" xlink:href="#ar"/><use transform="matrix(0.05185185185185186,0,0,0.05185185185185186,30.074074074074076,0)" xlink:href="#az"/><use transform="matrix(0.05185185185185186,0,0,0.05185185185185186,40.44444444444445,0)" xlink:href="#au"/><use transform="matrix(0.05185185185185186,0,0,0.05185185185185186,49.777777777777786,0)" xlink:href="#aB"/><use transform="matrix(0.05185185185185186,0,0,0.05185185185185186,53.87407407407408,0)" xlink:href="#aW"/><use transform="matrix(0.05185185185185186,0,0,0.05185185185185186,64.24444444444445,0)" xlink:href="#az"/><use transform="matrix(0.05185185185185186,0,0,0.05185185185185186,74.61481481481482,0)" xlink:href="#aW"/><use transform="matrix(0.05185185185185186,0,0,0.05185185185185186,84.98518518518519,0)" xlink:href="#aH"/></g><path fill="#333" d="M240 0l2-218c-23 76-54 145-80 218h-23L58-218 59 0H30v-248h44l77 211c21-75 51-140 76-211h43V0h-30" id="ba"/><path fill="#333" d="M85-194c31 0 48 13 60 33l-1-100h32l1 261h-30c-2-10 0-23-3-31C134-8 116 4 85 4 32 4 16-35 15-94c0-66 23-100 70-100zm9 24c-40 0-46 34-46 75 0 40 6 74 45 74 42 0 51-32 51-76 0-42-9-74-50-73" id="bb"/><path fill="#333" d="M141-36C126-15 110 5 73 4 37 3 15-17 15-53c-1-64 63-63 125-63 3-35-9-54-41-54-24 1-41 7-42 31l-33-3c5-37 33-52 76-52 45 0 72 20 72 64v82c-1 20 7 32 28 27v20c-31 9-61-2-59-35zM48-53c0 20 12 33 32 33 41-3 63-29 60-74-43 2-92-5-92 41" id="bc"/><path fill="#333" d="M24 0v-261h32V0H24" id="bd"/><path fill="#333" d="M100-194c63 0 86 42 84 106H49c0 40 14 67 53 68 26 1 43-12 49-29l28 8c-11 28-37 45-77 45C44 4 14-33 15-96c1-61 26-98 85-98zm52 81c6-60-76-77-97-28-3 7-6 17-6 28h103" id="be"/><g id="w"><use transform="matrix(0.05,0,0,0.05,0,0)" xlink:href="#ba"/><use transform="matrix(0.05,0,0,0.05,14.950000000000001,0)" xlink:href="#ao"/><use transform="matrix(0.05,0,0,0.05,24.950000000000003,0)" xlink:href="#bb"/><use transform="matrix(0.05,0,0,0.05,34.95,0)" xlink:href="#bc"/><use transform="matrix(0.05,0,0,0.05,44.95,0)" xlink:href="#bd"/><use transform="matrix(0.05,0,0,0.05,48.900000000000006,0)" xlink:href="#an"/><use transform="matrix(0.05,0,0,0.05,52.85,0)" xlink:href="#bb"/><use transform="matrix(0.05,0,0,0.05,62.85,0)" xlink:href="#bc"/><use transform="matrix(0.05,0,0,0.05,72.85000000000001,0)" xlink:href="#bb"/><use transform="matrix(0.05,0,0,0.05,82.85000000000001,0)" xlink:href="#be"/></g><g id="x"><use transform="matrix(0.05,0,0,0.05,0,0)" xlink:href="#ap"/><use transform="matrix(0.05,0,0,0.05,12,0)" xlink:href="#aq"/></g><path d="M240 0l2-218c-23 76-54 145-80 218h-23L58-218 59 0H30v-248h44l77 211c21-75 51-140 76-211h43V0h-30" id="bf"/><g id="y"><use transform="matrix(0.044444444444444446,0,0,0.044444444444444446,0,0)" xlink:href="#ar"/><use transform="matrix(0.044444444444444446,0,0,0.044444444444444446,8.88888888888889,0)" xlink:href="#as"/><use transform="matrix(0.044444444444444446,0,0,0.044444444444444446,16.88888888888889,0)" xlink:href="#at"/><use transform="matrix(0.044444444444444446,0,0,0.044444444444444446,25.77777777777778,0)" xlink:href="#aB"/><use transform="matrix(0.044444444444444446,0,0,0.044444444444444446,29.28888888888889,0)" xlink:href="#aW"/><use transform="matrix(0.044444444444444446,0,0,0.044444444444444446,38.17777777777778,0)" xlink:href="#bf"/><use transform="matrix(0.044444444444444446,0,0,0.044444444444444446,51.46666666666667,0)" xlink:href="#aC"/><use transform="matrix(0.044444444444444446,0,0,0.044444444444444446,60.35555555555556,0)" xlink:href="#aW"/><use transform="matrix(0.044444444444444446,0,0,0.044444444444444446,69.24444444444444,0)" xlink:href="#az"/><use transform="matrix(0.044444444444444446,0,0,0.044444444444444446,78.13333333333333,0)" xlink:href="#aR"/><use transform="matrix(0.044444444444444446,0,0,0.044444444444444446,81.64444444444443,0)" xlink:href="#aB"/><use transform="matrix(0.044444444444444446,0,0,0.044444444444444446,85.15555555555554,0)" xlink:href="#aW"/><use transform="matrix(0.044444444444444446,0,0,0.044444444444444446,94.04444444444442,0)" xlink:href="#az"/><use transform="matrix(0.044444444444444446,0,0,0.044444444444444446,102.93333333333332,0)" xlink:href="#aW"/><use transform="matrix(0.044444444444444446,0,0,0.044444444444444446,111.82222222222218,0)" xlink:href="#aH"/></g><g id="z"><use transform="matrix(0.05,0,0,0.05,0,0)" xlink:href="#an"/><use transform="matrix(0.05,0,0,0.05,3.95,0)" xlink:href="#aD"/><use transform="matrix(0.05,0,0,0.05,13.949999999999998,0)" xlink:href="#aE"/></g><g id="A"><use transform="matrix(0.044444444444444446,0,0,0.044444444444444446,0,0)" xlink:href="#aG"/><use transform="matrix(0.044444444444444446,0,0,0.044444444444444446,13.28888888888889,0)" xlink:href="#aC"/><use transform="matrix(0.044444444444444446,0,0,0.044444444444444446,22.177777777777777,0)" xlink:href="#aW"/><use transform="matrix(0.044444444444444446,0,0,0.044444444444444446,31.066666666666666,0)" xlink:href="#az"/><use transform="matrix(0.044444444444444446,0,0,0.044444444444444446,39.955555555555556,0)" xlink:href="#aR"/><use transform="matrix(0.044444444444444446,0,0,0.044444444444444446,43.46666666666667,0)" xlink:href="#aB"/><use transform="matrix(0.044444444444444446,0,0,0.044444444444444446,46.97777777777778,0)" xlink:href="#aW"/><use transform="matrix(0.044444444444444446,0,0,0.044444444444444446,55.86666666666668,0)" xlink:href="#az"/><use transform="matrix(0.044444444444444446,0,0,0.044444444444444446,64.75555555555556,0)" xlink:href="#aW"/><use transform="matrix(0.044444444444444446,0,0,0.044444444444444446,73.64444444444445,0)" xlink:href="#aH"/></g><path fill="#333" d="M108 0H70L1-190h34L89-25l56-165h34" id="bg"/><path fill="#333" d="M96-169c-40 0-48 33-48 73s9 75 48 75c24 0 41-14 43-38l32 2c-6 37-31 61-74 61-59 0-76-41-82-99-10-93 101-131 147-64 4 7 5 14 7 22l-32 3c-4-21-16-35-41-35" id="bh"/><path fill="#333" d="M106-169C34-169 62-67 57 0H25v-261h32l-1 103c12-21 28-36 61-36 89 0 53 116 60 194h-32v-121c2-32-8-49-39-48" id="bi"/><path fill="#333" d="M87 75C49 33 22-17 22-94c0-76 28-126 65-167h31c-38 41-64 92-64 168S80 34 118 75H87" id="bj"/><path fill="#333" d="M27 0v-27h64v-190l-56 39v-29l58-41h29v221h61V0H27" id="bk"/><path fill="#333" d="M101-251c68 0 85 55 85 127S166 4 100 4C33 4 14-52 14-124c0-73 17-127 87-127zm-1 229c47 0 54-49 54-102s-4-102-53-102c-51 0-55 48-55 102 0 53 5 102 54 102" id="bl"/><path fill="#333" d="M33-261c38 41 65 92 65 168S71 34 33 75H2C39 34 66-17 66-93S39-220 2-261h31" id="bm"/><g id="B"><use transform="matrix(0.05,0,0,0.05,0,0)" xlink:href="#bg"/><use transform="matrix(0.05,0,0,0.05,9,0)" xlink:href="#bc"/><use transform="matrix(0.05,0,0,0.05,19,0)" xlink:href="#am"/><use transform="matrix(0.05,0,0,0.05,24.95,0)" xlink:href="#bh"/><use transform="matrix(0.05,0,0,0.05,33.95,0)" xlink:href="#bi"/><use transform="matrix(0.05,0,0,0.05,43.95,0)" xlink:href="#bc"/><use transform="matrix(0.05,0,0,0.05,53.95,0)" xlink:href="#am"/><use transform="matrix(0.05,0,0,0.05,59.900000000000006,0)" xlink:href="#bj"/><use transform="matrix(0.05,0,0,0.05,65.85000000000001,0)" xlink:href="#bk"/><use transform="matrix(0.05,0,0,0.05,75.85000000000001,0)" xlink:href="#bl"/><use transform="matrix(0.05,0,0,0.05,85.85000000000001,0)" xlink:href="#bm"/></g><path fill="#333" d="M30-248c118-7 216 8 213 122C240-48 200 0 122 0H30v-248zM63-27c89 8 146-16 146-99s-60-101-146-95v194" id="bn"/><g id="C"><use transform="matrix(0.05,0,0,0.05,0,0)" xlink:href="#bn"/><use transform="matrix(0.05,0,0,0.05,12.950000000000001,0)" xlink:href="#be"/><use transform="matrix(0.05,0,0,0.05,22.950000000000003,0)" xlink:href="#aE"/><use transform="matrix(0.05,0,0,0.05,27.950000000000003,0)" xlink:href="#bc"/><use transform="matrix(0.05,0,0,0.05,37.95,0)" xlink:href="#bd"/><use transform="matrix(0.05,0,0,0.05,41.900000000000006,0)" xlink:href="#bi"/><use transform="matrix(0.05,0,0,0.05,51.900000000000006,0)" xlink:href="#be"/></g><path d="M30-248c118-7 216 8 213 122C240-48 200 0 122 0H30v-248zM63-27c89 8 146-16 146-99s-60-101-146-95v194" id="bo"/><g id="D"><use transform="matrix(0.044444444444444446,0,0,0.044444444444444446,0,0)" xlink:href="#ar"/><use transform="matrix(0.044444444444444446,0,0,0.044444444444444446,8.88888888888889,0)" xlink:href="#as"/><use transform="matrix(0.044444444444444446,0,0,0.044444444444444446,16.88888888888889,0)" xlink:href="#at"/><use transform="matrix(0.044444444444444446,0,0,0.044444444444444446,25.77777777777778,0)" xlink:href="#aB"/><use transform="matrix(0.044444444444444446,0,0,0.044444444444444446,29.28888888888889,0)" xlink:href="#aW"/><use transform="matrix(0.044444444444444446,0,0,0.044444444444444446,38.17777777777778,0)" xlink:href="#bo"/><use transform="matrix(0.044444444444444446,0,0,0.044444444444444446,49.68888888888889,0)" xlink:href="#aH"/><use transform="matrix(0.044444444444444446,0,0,0.044444444444444446,58.57777777777778,0)" xlink:href="#aS"/><use transform="matrix(0.044444444444444446,0,0,0.044444444444444446,63.022222222222226,0)" xlink:href="#az"/><use transform="matrix(0.044444444444444446,0,0,0.044444444444444446,71.91111111111111,0)" xlink:href="#aR"/><use transform="matrix(0.044444444444444446,0,0,0.044444444444444446,75.42222222222222,0)" xlink:href="#aJ"/><use transform="matrix(0.044444444444444446,0,0,0.044444444444444446,84.3111111111111,0)" xlink:href="#aH"/></g><path fill="#333" d="M63-220v92h138v28H63V0H30v-248h175v28H63" id="bp"/><g id="E"><use transform="matrix(0.05,0,0,0.05,0,0)" xlink:href="#bp"/><use transform="matrix(0.05,0,0,0.05,10.950000000000001,0)" xlink:href="#aq"/></g><path d="M127-220V0H93v-220H8v-28h204v28h-85" id="bq"/><g id="F"><use transform="matrix(0.044444444444444446,0,0,0.044444444444444446,0,0)" xlink:href="#aB"/><use transform="matrix(0.044444444444444446,0,0,0.044444444444444446,3.511111111111111,0)" xlink:href="#aW"/><use transform="matrix(0.044444444444444446,0,0,0.044444444444444446,12.4,0)" xlink:href="#bq"/><use transform="matrix(0.044444444444444446,0,0,0.044444444444444446,21.555555555555557,0)" xlink:href="#aB"/><use transform="matrix(0.044444444444444446,0,0,0.044444444444444446,25.066666666666666,0)" xlink:href="#ar"/><use transform="matrix(0.044444444444444446,0,0,0.044444444444444446,33.95555555555556,0)" xlink:href="#aC"/></g><path d="M30 0v-248h187v28H63v79h144v27H63v87h162V0H30" id="br"/><g id="G"><use transform="matrix(0.044444444444444446,0,0,0.044444444444444446,0,0)" xlink:href="#aB"/><use transform="matrix(0.044444444444444446,0,0,0.044444444444444446,3.511111111111111,0)" xlink:href="#aW"/><use transform="matrix(0.044444444444444446,0,0,0.044444444444444446,12.4,0)" xlink:href="#br"/><use transform="matrix(0.044444444444444446,0,0,0.044444444444444446,23.066666666666666,0)" xlink:href="#aI"/><use transform="matrix(0.044444444444444446,0,0,0.044444444444444446,31.066666666666666,0)" xlink:href="#aH"/><use transform="matrix(0.044444444444444446,0,0,0.044444444444444446,39.95555555555556,0)" xlink:href="#aF"/><use transform="matrix(0.044444444444444446,0,0,0.044444444444444446,48.84444444444445,0)" xlink:href="#aS"/><use transform="matrix(0.044444444444444446,0,0,0.044444444444444446,53.28888888888889,0)" xlink:href="#aC"/></g><path d="M233-177c-1 41-23 64-60 70L243 0h-38l-65-103H63V0H30v-248c88 3 205-21 203 71zM63-129c60-2 137 13 137-47 0-61-80-42-137-45v92" id="bs"/><g id="H"><use transform="matrix(0.044444444444444446,0,0,0.044444444444444446,0,0)" xlink:href="#au"/><use transform="matrix(0.044444444444444446,0,0,0.044444444444444446,8,0)" xlink:href="#ar"/><use transform="matrix(0.044444444444444446,0,0,0.044444444444444446,16.88888888888889,0)" xlink:href="#av"/><use transform="matrix(0.044444444444444446,0,0,0.044444444444444446,21.333333333333336,0)" xlink:href="#bs"/><use transform="matrix(0.044444444444444446,0,0,0.044444444444444446,32.84444444444445,0)" xlink:href="#aH"/><use transform="matrix(0.044444444444444446,0,0,0.044444444444444446,41.733333333333334,0)" xlink:href="#ax"/><use transform="matrix(0.044444444444444446,0,0,0.044444444444444446,49.733333333333334,0)" xlink:href="#ar"/><use transform="matrix(0.044444444444444446,0,0,0.044444444444444446,58.62222222222223,0)" xlink:href="#aC"/><use transform="matrix(0.044444444444444446,0,0,0.044444444444444446,67.5111111111111,0)" xlink:href="#aF"/><use transform="matrix(0.044444444444444446,0,0,0.044444444444444446,76.39999999999999,0)" xlink:href="#ax"/><use transform="matrix(0.044444444444444446,0,0,0.044444444444444446,84.39999999999999,0)" xlink:href="#az"/><use transform="matrix(0.044444444444444446,0,0,0.044444444444444446,93.28888888888888,0)" xlink:href="#aI"/><use transform="matrix(0.044444444444444446,0,0,0.044444444444444446,101.28888888888888,0)" xlink:href="#aH"/><use transform="matrix(0.044444444444444446,0,0,0.044444444444444446,110.17777777777776,0)" xlink:href="#aR"/></g><g id="I"><use transform="matrix(0.044444444444444446,0,0,0.044444444444444446,0,0)" xlink:href="#aB"/><use transform="matrix(0.044444444444444446,0,0,0.044444444444444446,3.511111111111111,0)" xlink:href="#aW"/><use transform="matrix(0.044444444444444446,0,0,0.044444444444444446,12.4,0)" xlink:href="#bf"/><use transform="matrix(0.044444444444444446,0,0,0.044444444444444446,25.68888888888889,0)" xlink:href="#aC"/><use transform="matrix(0.044444444444444446,0,0,0.044444444444444446,34.57777777777778,0)" xlink:href="#aW"/><use transform="matrix(0.044444444444444446,0,0,0.044444444444444446,43.46666666666667,0)" xlink:href="#az"/><use transform="matrix(0.044444444444444446,0,0,0.044444444444444446,52.355555555555554,0)" xlink:href="#aR"/><use transform="matrix(0.044444444444444446,0,0,0.044444444444444446,55.86666666666667,0)" xlink:href="#aB"/><use transform="matrix(0.044444444444444446,0,0,0.044444444444444446,59.37777777777778,0)" xlink:href="#aW"/><use transform="matrix(0.044444444444444446,0,0,0.044444444444444446,68.26666666666667,0)" xlink:href="#az"/><use transform="matrix(0.044444444444444446,0,0,0.044444444444444446,77.15555555555555,0)" xlink:href="#aW"/><use transform="matrix(0.044444444444444446,0,0,0.044444444444444446,86.04444444444444,0)" xlink:href="#aH"/></g><path d="M141 0L90-78 38 0H4l68-98-65-92h35l48 74 47-74h35l-64 92 68 98h-35" id="bt"/><g id="J"><use transform="matrix(0.044444444444444446,0,0,0.044444444444444446,0,0)" xlink:href="#aG"/><use transform="matrix(0.044444444444444446,0,0,0.044444444444444446,13.28888888888889,0)" xlink:href="#az"/><use transform="matrix(0.044444444444444446,0,0,0.044444444444444446,22.177777777777777,0)" xlink:href="#bt"/><use transform="matrix(0.044444444444444446,0,0,0.044444444444444446,30.17777777777778,0)" xlink:href="#aP"/><use transform="matrix(0.044444444444444446,0,0,0.044444444444444446,40.84444444444445,0)" xlink:href="#az"/><use transform="matrix(0.044444444444444446,0,0,0.044444444444444446,49.733333333333334,0)" xlink:href="#aA"/><use transform="matrix(0.044444444444444446,0,0,0.044444444444444446,55.022222222222226,0)" xlink:href="#aS"/><use transform="matrix(0.044444444444444446,0,0,0.044444444444444446,59.46666666666667,0)" xlink:href="#aB"/><use transform="matrix(0.044444444444444446,0,0,0.044444444444444446,62.97777777777778,0)" xlink:href="#au"/><use transform="matrix(0.044444444444444446,0,0,0.044444444444444446,70.97777777777779,0)" xlink:href="#aB"/><use transform="matrix(0.044444444444444446,0,0,0.044444444444444446,74.4888888888889,0)" xlink:href="#ar"/><use transform="matrix(0.044444444444444446,0,0,0.044444444444444446,83.37777777777778,0)" xlink:href="#az"/><use transform="matrix(0.044444444444444446,0,0,0.044444444444444446,92.26666666666667,0)" xlink:href="#aF"/><use transform="matrix(0.044444444444444446,0,0,0.044444444444444446,101.15555555555557,0)" xlink:href="#aS"/><use transform="matrix(0.044444444444444446,0,0,0.044444444444444446,105.60000000000001,0)" xlink:href="#aH"/><use transform="matrix(0.044444444444444446,0,0,0.044444444444444446,114.48888888888888,0)" xlink:href="#ax"/></g><path d="M24-231v-30h32v30H24zM-9 49c24 4 33-6 33-30v-209h32V24c2 40-23 58-65 49V49" id="bu"/><g id="K"><use transform="matrix(0.044444444444444446,0,0,0.044444444444444446,0,0)" xlink:href="#aC"/><use transform="matrix(0.044444444444444446,0,0,0.044444444444444446,8.88888888888889,0)" xlink:href="#aQ"/><use transform="matrix(0.044444444444444446,0,0,0.044444444444444446,17.77777777777778,0)" xlink:href="#bu"/><use transform="matrix(0.044444444444444446,0,0,0.044444444444444446,21.28888888888889,0)" xlink:href="#aH"/><use transform="matrix(0.044444444444444446,0,0,0.044444444444444446,30.17777777777778,0)" xlink:href="#aS"/><use transform="matrix(0.044444444444444446,0,0,0.044444444444444446,34.62222222222223,0)" xlink:href="#aB"/><use transform="matrix(0.044444444444444446,0,0,0.044444444444444446,38.13333333333334,0)" xlink:href="#aI"/><use transform="matrix(0.044444444444444446,0,0,0.044444444444444446,46.13333333333333,0)" xlink:href="#aC"/><use transform="matrix(0.044444444444444446,0,0,0.044444444444444446,55.022222222222226,0)" xlink:href="#br"/><use transform="matrix(0.044444444444444446,0,0,0.044444444444444446,65.6888888888889,0)" xlink:href="#aI"/><use transform="matrix(0.044444444444444446,0,0,0.044444444444444446,73.6888888888889,0)" xlink:href="#aH"/><use transform="matrix(0.044444444444444446,0,0,0.044444444444444446,82.57777777777778,0)" xlink:href="#aF"/><use transform="matrix(0.044444444444444446,0,0,0.044444444444444446,91.46666666666667,0)" xlink:href="#aS"/><use transform="matrix(0.044444444444444446,0,0,0.044444444444444446,95.91111111111111,0)" xlink:href="#aC"/></g><g id="L"><use transform="matrix(0.05,0,0,0.05,0,0)" xlink:href="#bg"/><use transform="matrix(0.05,0,0,0.05,9,0)" xlink:href="#bc"/><use transform="matrix(0.05,0,0,0.05,19,0)" xlink:href="#am"/><use transform="matrix(0.05,0,0,0.05,24.95,0)" xlink:href="#bh"/><use transform="matrix(0.05,0,0,0.05,33.95,0)" xlink:href="#bi"/><use transform="matrix(0.05,0,0,0.05,43.95,0)" xlink:href="#bc"/><use transform="matrix(0.05,0,0,0.05,53.95,0)" xlink:href="#am"/><use transform="matrix(0.05,0,0,0.05,59.900000000000006,0)" xlink:href="#bj"/><use transform="matrix(0.05,0,0,0.05,65.85000000000001,0)" xlink:href="#bk"/><use transform="matrix(0.05,0,0,0.05,75.85000000000001,0)" xlink:href="#bl"/><use transform="matrix(0.05,0,0,0.05,85.85000000000001,0)" xlink:href="#bl"/><use transform="matrix(0.05,0,0,0.05,95.85000000000001,0)" xlink:href="#bm"/></g><path fill="#333" d="M30 0v-248h187v28H63v79h144v27H63v87h162V0H30" id="bv"/><g id="M"><use transform="matrix(0.05,0,0,0.05,0,0)" xlink:href="#bv"/><use transform="matrix(0.05,0,0,0.05,12,0)" xlink:href="#bg"/><use transform="matrix(0.05,0,0,0.05,21,0)" xlink:href="#be"/><use transform="matrix(0.05,0,0,0.05,31,0)" xlink:href="#aD"/><use transform="matrix(0.05,0,0,0.05,41,0)" xlink:href="#aE"/><use transform="matrix(0.05,0,0,0.05,46,0)" xlink:href="#ao"/></g><g id="N"><use transform="matrix(0.044444444444444446,0,0,0.044444444444444446,0,0)" xlink:href="#ar"/><use transform="matrix(0.044444444444444446,0,0,0.044444444444444446,8.88888888888889,0)" xlink:href="#as"/><use transform="matrix(0.044444444444444446,0,0,0.044444444444444446,16.88888888888889,0)" xlink:href="#at"/><use transform="matrix(0.044444444444444446,0,0,0.044444444444444446,25.77777777777778,0)" xlink:href="#aB"/><use transform="matrix(0.044444444444444446,0,0,0.044444444444444446,29.28888888888889,0)" xlink:href="#aW"/><use transform="matrix(0.044444444444444446,0,0,0.044444444444444446,38.17777777777778,0)" xlink:href="#br"/><use transform="matrix(0.044444444444444446,0,0,0.044444444444444446,48.84444444444445,0)" xlink:href="#aI"/><use transform="matrix(0.044444444444444446,0,0,0.044444444444444446,56.84444444444445,0)" xlink:href="#aH"/><use transform="matrix(0.044444444444444446,0,0,0.044444444444444446,65.73333333333333,0)" xlink:href="#aF"/><use transform="matrix(0.044444444444444446,0,0,0.044444444444444446,74.62222222222222,0)" xlink:href="#aS"/><use transform="matrix(0.044444444444444446,0,0,0.044444444444444446,79.06666666666666,0)" xlink:href="#aC"/></g><g id="O"><use transform="matrix(0.044444444444444446,0,0,0.044444444444444446,0,0)" xlink:href="#aF"/><use transform="matrix(0.044444444444444446,0,0,0.044444444444444446,8.88888888888889,0)" xlink:href="#aC"/><use transform="matrix(0.044444444444444446,0,0,0.044444444444444446,17.77777777777778,0)" xlink:href="#aG"/><use transform="matrix(0.044444444444444446,0,0,0.044444444444444446,31.066666666666666,0)" xlink:href="#aH"/><use transform="matrix(0.044444444444444446,0,0,0.044444444444444446,39.95555555555556,0)" xlink:href="#br"/><use transform="matrix(0.044444444444444446,0,0,0.044444444444444446,50.622222222222234,0)" xlink:href="#aI"/><use transform="matrix(0.044444444444444446,0,0,0.044444444444444446,58.622222222222234,0)" xlink:href="#aH"/><use transform="matrix(0.044444444444444446,0,0,0.044444444444444446,67.51111111111112,0)" xlink:href="#aF"/><use transform="matrix(0.044444444444444446,0,0,0.044444444444444446,76.4,0)" xlink:href="#aS"/><use transform="matrix(0.044444444444444446,0,0,0.044444444444444446,80.84444444444445,0)" xlink:href="#aC"/></g><path d="M205 0l-28-72H64L36 0H1l101-248h38L239 0h-34zm-38-99l-47-123c-12 45-31 82-46 123h93" id="bw"/><g id="P"><use transform="matrix(0.044444444444444446,0,0,0.044444444444444446,0,0)" xlink:href="#ar"/><use transform="matrix(0.044444444444444446,0,0,0.044444444444444446,8.88888888888889,0)" xlink:href="#ay"/><use transform="matrix(0.044444444444444446,0,0,0.044444444444444446,17.77777777777778,0)" xlink:href="#aQ"/><use transform="matrix(0.044444444444444446,0,0,0.044444444444444446,26.666666666666668,0)" xlink:href="#aR"/><use transform="matrix(0.044444444444444446,0,0,0.044444444444444446,30.17777777777778,0)" xlink:href="#aB"/><use transform="matrix(0.044444444444444446,0,0,0.044444444444444446,33.68888888888889,0)" xlink:href="#au"/><use transform="matrix(0.044444444444444446,0,0,0.044444444444444446,41.68888888888889,0)" xlink:href="#aC"/><use transform="matrix(0.044444444444444446,0,0,0.044444444444444446,50.57777777777778,0)" xlink:href="#bw"/><use transform="matrix(0.044444444444444446,0,0,0.044444444444444446,61.244444444444454,0)" xlink:href="#aR"/><use transform="matrix(0.044444444444444446,0,0,0.044444444444444446,64.75555555555556,0)" xlink:href="#aI"/><use transform="matrix(0.044444444444444446,0,0,0.044444444444444446,72.75555555555556,0)" xlink:href="#aC"/></g><path fill="#333" d="M54-142c48-35 137-8 131 61C196 18 31 33 14-55l32-4c7 23 22 37 52 37 35-1 51-22 54-58 4-55-73-65-99-34H22l8-134h141v27H59" id="bx"/><g id="Q"><use transform="matrix(0.05,0,0,0.05,0,0)" xlink:href="#bg"/><use transform="matrix(0.05,0,0,0.05,9,0)" xlink:href="#bc"/><use transform="matrix(0.05,0,0,0.05,19,0)" xlink:href="#am"/><use transform="matrix(0.05,0,0,0.05,24.95,0)" xlink:href="#bh"/><use transform="matrix(0.05,0,0,0.05,33.95,0)" xlink:href="#bi"/><use transform="matrix(0.05,0,0,0.05,43.95,0)" xlink:href="#bc"/><use transform="matrix(0.05,0,0,0.05,53.95,0)" xlink:href="#am"/><use transform="matrix(0.05,0,0,0.05,59.900000000000006,0)" xlink:href="#bj"/><use transform="matrix(0.05,0,0,0.05,65.85000000000001,0)" xlink:href="#bx"/><use transform="matrix(0.05,0,0,0.05,75.85000000000001,0)" xlink:href="#bl"/><use transform="matrix(0.05,0,0,0.05,85.85000000000001,0)" xlink:href="#bm"/></g><g id="R"><use transform="matrix(0.044444444444444446,0,0,0.044444444444444446,0,0)" xlink:href="#au"/><use transform="matrix(0.044444444444444446,0,0,0.044444444444444446,8,0)" xlink:href="#aC"/><use transform="matrix(0.044444444444444446,0,0,0.044444444444444446,16.88888888888889,0)" xlink:href="#aG"/><use transform="matrix(0.044444444444444446,0,0,0.044444444444444446,30.17777777777778,0)" xlink:href="#ar"/><use transform="matrix(0.044444444444444446,0,0,0.044444444444444446,39.06666666666666,0)" xlink:href="#aH"/><use transform="matrix(0.044444444444444446,0,0,0.044444444444444446,47.95555555555555,0)" xlink:href="#aS"/><use transform="matrix(0.044444444444444446,0,0,0.044444444444444446,52.39999999999999,0)" xlink:href="#aH"/><use transform="matrix(0.044444444444444446,0,0,0.044444444444444446,61.288888888888884,0)" xlink:href="#aF"/><use transform="matrix(0.044444444444444446,0,0,0.044444444444444446,70.17777777777776,0)" xlink:href="#au"/><use transform="matrix(0.044444444444444446,0,0,0.044444444444444446,78.17777777777776,0)" xlink:href="#aB"/><use transform="matrix(0.044444444444444446,0,0,0.044444444444444446,81.68888888888887,0)" xlink:href="#az"/><use transform="matrix(0.044444444444444446,0,0,0.044444444444444446,90.57777777777775,0)" xlink:href="#ax"/></g><g id="S"><use transform="matrix(0.044444444444444446,0,0,0.044444444444444446,0,0)" xlink:href="#au"/><use transform="matrix(0.044444444444444446,0,0,0.044444444444444446,8,0)" xlink:href="#aC"/><use transform="matrix(0.044444444444444446,0,0,0.044444444444444446,16.88888888888889,0)" xlink:href="#aF"/><use transform="matrix(0.044444444444444446,0,0,0.044444444444444446,25.77777777777778,0)" xlink:href="#aS"/><use transform="matrix(0.044444444444444446,0,0,0.044444444444444446,30.222222222222225,0)" xlink:href="#aH"/><use transform="matrix(0.044444444444444446,0,0,0.044444444444444446,39.111111111111114,0)" xlink:href="#ay"/><use transform="matrix(0.044444444444444446,0,0,0.044444444444444446,48,0)" xlink:href="#aW"/><use transform="matrix(0.044444444444444446,0,0,0.044444444444444446,56.88888888888888,0)" xlink:href="#aC"/></g><path fill="#333" d="M127-220V0H93v-220H8v-28h204v28h-85" id="by"/><path fill="#333" d="M115-194c55 1 70 41 70 98S169 2 115 4C84 4 66-9 55-30l1 105H24l-1-265h31l2 30c10-21 28-34 59-34zm-8 174c40 0 45-34 45-75s-6-73-45-74c-42 0-51 32-51 76 0 43 10 73 51 73" id="bz"/><g id="T"><use transform="matrix(0.05,0,0,0.05,0,0)" xlink:href="#by"/><use transform="matrix(0.05,0,0,0.05,10.3,0)" xlink:href="#an"/><use transform="matrix(0.05,0,0,0.05,14.25,0)" xlink:href="#bz"/><use transform="matrix(0.05,0,0,0.05,24.25,0)" xlink:href="#ao"/></g><g id="U"><use transform="matrix(0.044444444444444446,0,0,0.044444444444444446,0,0)" xlink:href="#ar"/><use transform="matrix(0.044444444444444446,0,0,0.044444444444444446,8.88888888888889,0)" xlink:href="#as"/><use transform="matrix(0.044444444444444446,0,0,0.044444444444444446,16.88888888888889,0)" xlink:href="#at"/><use transform="matrix(0.044444444444444446,0,0,0.044444444444444446,25.77777777777778,0)" xlink:href="#aB"/><use transform="matrix(0.044444444444444446,0,0,0.044444444444444446,29.28888888888889,0)" xlink:href="#aW"/><use transform="matrix(0.044444444444444446,0,0,0.044444444444444446,38.17777777777778,0)" xlink:href="#bq"/><use transform="matrix(0.044444444444444446,0,0,0.044444444444444446,47.333333333333336,0)" xlink:href="#aB"/><use transform="matrix(0.044444444444444446,0,0,0.044444444444444446,50.84444444444445,0)" xlink:href="#ar"/><use transform="matrix(0.044444444444444446,0,0,0.044444444444444446,59.733333333333334,0)" xlink:href="#aC"/></g><g id="V"><use transform="matrix(0.044444444444444446,0,0,0.044444444444444446,0,0)" xlink:href="#aS"/><use transform="matrix(0.044444444444444446,0,0,0.044444444444444446,4.444444444444445,0)" xlink:href="#aB"/><use transform="matrix(0.044444444444444446,0,0,0.044444444444444446,7.955555555555556,0)" xlink:href="#ar"/><use transform="matrix(0.044444444444444446,0,0,0.044444444444444446,16.844444444444445,0)" xlink:href="#aC"/></g><path fill="#333" d="M101-251c82-7 93 87 43 132L82-64C71-53 59-42 53-27h129V0H18c2-99 128-94 128-182 0-28-16-43-45-43s-46 15-49 41l-32-3c6-41 34-60 81-64" id="bA"/><g id="W"><use transform="matrix(0.05,0,0,0.05,0,0)" xlink:href="#bg"/><use transform="matrix(0.05,0,0,0.05,9,0)" xlink:href="#bc"/><use transform="matrix(0.05,0,0,0.05,19,0)" xlink:href="#am"/><use transform="matrix(0.05,0,0,0.05,24.95,0)" xlink:href="#bh"/><use transform="matrix(0.05,0,0,0.05,33.95,0)" xlink:href="#bi"/><use transform="matrix(0.05,0,0,0.05,43.95,0)" xlink:href="#bc"/><use transform="matrix(0.05,0,0,0.05,53.95,0)" xlink:href="#am"/><use transform="matrix(0.05,0,0,0.05,59.900000000000006,0)" xlink:href="#bj"/><use transform="matrix(0.05,0,0,0.05,65.85000000000001,0)" xlink:href="#bA"/><use transform="matrix(0.05,0,0,0.05,75.85000000000001,0)" xlink:href="#bl"/><use transform="matrix(0.05,0,0,0.05,85.85000000000001,0)" xlink:href="#bm"/></g><path fill="#333" d="M140-251c81 0 123 46 123 126C263-46 219 4 140 4 59 4 17-45 17-125s42-126 123-126zm0 227c63 0 89-41 89-101s-29-99-89-99c-61 0-89 39-89 99S79-25 140-24" id="bB"/><path fill="#333" d="M100-194c63 0 86 42 84 106H49c0 40 14 67 53 68 26 1 43-12 49-29l28 8c-11 28-37 45-77 45C44 4 14-33 15-96c1-61 26-98 85-98zm52 81c6-60-76-77-97-28-3 7-6 17-6 28h103zm-32-149c12 18 30 30 39 51-31 2-38-20-57-30-20 10-27 32-59 30 9-22 29-33 41-51h36" id="bC"/><g id="X"><use transform="matrix(0.05,0,0,0.05,0,0)" xlink:href="#bB"/><use transform="matrix(0.05,0,0,0.05,14,0)" xlink:href="#bh"/><use transform="matrix(0.05,0,0,0.05,23,0)" xlink:href="#ao"/><use transform="matrix(0.05,0,0,0.05,33,0)" xlink:href="#am"/><use transform="matrix(0.05,0,0,0.05,38.95,0)" xlink:href="#am"/><use transform="matrix(0.05,0,0,0.05,44.900000000000006,0)" xlink:href="#bC"/><use transform="matrix(0.05,0,0,0.05,54.900000000000006,0)" xlink:href="#aD"/><use transform="matrix(0.05,0,0,0.05,64.9,0)" xlink:href="#bh"/><use transform="matrix(0.05,0,0,0.05,73.9,0)" xlink:href="#an"/><use transform="matrix(0.05,0,0,0.05,77.85000000000001,0)" xlink:href="#bc"/></g><path d="M140-251c81 0 123 46 123 126C263-46 219 4 140 4 59 4 17-45 17-125s42-126 123-126zm0 227c63 0 89-41 89-101s-29-99-89-99c-61 0-89 39-89 99S79-25 140-24" id="bD"/><g id="Y"><use transform="matrix(0.044444444444444446,0,0,0.044444444444444446,0,0)" xlink:href="#ar"/><use transform="matrix(0.044444444444444446,0,0,0.044444444444444446,8.88888888888889,0)" xlink:href="#as"/><use transform="matrix(0.044444444444444446,0,0,0.044444444444444446,16.88888888888889,0)" xlink:href="#at"/><use transform="matrix(0.044444444444444446,0,0,0.044444444444444446,25.77777777777778,0)" xlink:href="#aB"/><use transform="matrix(0.044444444444444446,0,0,0.044444444444444446,29.28888888888889,0)" xlink:href="#aW"/><use transform="matrix(0.044444444444444446,0,0,0.044444444444444446,38.17777777777778,0)" xlink:href="#bD"/><use transform="matrix(0.044444444444444446,0,0,0.044444444444444446,50.62222222222223,0)" xlink:href="#au"/><use transform="matrix(0.044444444444444446,0,0,0.044444444444444446,58.62222222222223,0)" xlink:href="#aC"/><use transform="matrix(0.044444444444444446,0,0,0.044444444444444446,67.5111111111111,0)" xlink:href="#aA"/><use transform="matrix(0.044444444444444446,0,0,0.044444444444444446,72.8,0)" xlink:href="#aA"/><use transform="matrix(0.044444444444444446,0,0,0.044444444444444446,78.08888888888889,0)" xlink:href="#aH"/><use transform="matrix(0.044444444444444446,0,0,0.044444444444444446,86.97777777777777,0)" xlink:href="#aF"/><use transform="matrix(0.044444444444444446,0,0,0.044444444444444446,95.86666666666665,0)" xlink:href="#au"/><use transform="matrix(0.044444444444444446,0,0,0.044444444444444446,103.86666666666665,0)" xlink:href="#aB"/><use transform="matrix(0.044444444444444446,0,0,0.044444444444444446,107.37777777777777,0)" xlink:href="#az"/></g><g id="Z"><use transform="matrix(0.044444444444444446,0,0,0.044444444444444446,0,0)" xlink:href="#aB"/><use transform="matrix(0.044444444444444446,0,0,0.044444444444444446,3.511111111111111,0)" xlink:href="#aW"/><use transform="matrix(0.044444444444444446,0,0,0.044444444444444446,12.4,0)" xlink:href="#aU"/><use transform="matrix(0.044444444444444446,0,0,0.044444444444444446,23.066666666666666,0)" xlink:href="#az"/><use transform="matrix(0.044444444444444446,0,0,0.044444444444444446,31.955555555555556,0)" xlink:href="#aR"/><use transform="matrix(0.044444444444444446,0,0,0.044444444444444446,35.46666666666667,0)" xlink:href="#az"/></g><g id="aa"><use transform="matrix(0.044444444444444446,0,0,0.044444444444444446,0,0)" xlink:href="#aB"/><use transform="matrix(0.044444444444444446,0,0,0.044444444444444446,3.511111111111111,0)" xlink:href="#aW"/><use transform="matrix(0.044444444444444446,0,0,0.044444444444444446,12.4,0)" xlink:href="#bo"/><use transform="matrix(0.044444444444444446,0,0,0.044444444444444446,23.91111111111111,0)" xlink:href="#aH"/><use transform="matrix(0.044444444444444446,0,0,0.044444444444444446,32.8,0)" xlink:href="#aS"/><use transform="matrix(0.044444444444444446,0,0,0.044444444444444446,37.24444444444444,0)" xlink:href="#az"/><use transform="matrix(0.044444444444444446,0,0,0.044444444444444446,46.133333333333326,0)" xlink:href="#aR"/><use transform="matrix(0.044444444444444446,0,0,0.044444444444444446,49.64444444444444,0)" xlink:href="#aJ"/><use transform="matrix(0.044444444444444446,0,0,0.044444444444444446,58.53333333333334,0)" xlink:href="#aH"/></g><g id="ab"><use transform="matrix(0.044444444444444446,0,0,0.044444444444444446,0,0)" xlink:href="#aB"/><use transform="matrix(0.044444444444444446,0,0,0.044444444444444446,3.511111111111111,0)" xlink:href="#aF"/><use transform="matrix(0.044444444444444446,0,0,0.044444444444444446,12.4,0)" xlink:href="#aB"/><use transform="matrix(0.044444444444444446,0,0,0.044444444444444446,15.911111111111111,0)" xlink:href="#au"/><use transform="matrix(0.044444444444444446,0,0,0.044444444444444446,23.91111111111111,0)" xlink:href="#aB"/><use transform="matrix(0.044444444444444446,0,0,0.044444444444444446,27.422222222222224,0)" xlink:href="#aC"/><use transform="matrix(0.044444444444444446,0,0,0.044444444444444446,36.31111111111112,0)" xlink:href="#br"/><use transform="matrix(0.044444444444444446,0,0,0.044444444444444446,46.97777777777779,0)" xlink:href="#aI"/><use transform="matrix(0.044444444444444446,0,0,0.044444444444444446,54.97777777777779,0)" xlink:href="#aH"/><use transform="matrix(0.044444444444444446,0,0,0.044444444444444446,63.86666666666668,0)" xlink:href="#aF"/><use transform="matrix(0.044444444444444446,0,0,0.044444444444444446,72.75555555555556,0)" xlink:href="#aS"/><use transform="matrix(0.044444444444444446,0,0,0.044444444444444446,77.2,0)" xlink:href="#aC"/></g><path fill="#333" d="M210-169c-67 3-38 105-44 169h-31v-121c0-29-5-50-35-48C34-165 62-65 56 0H25l-1-190h30c1 10-1 24 2 32 10-44 99-50 107 0 11-21 27-35 58-36 85-2 47 119 55 194h-31v-121c0-29-5-49-35-48" id="bE"/><g id="ac"><use transform="matrix(0.05,0,0,0.05,0,0)" xlink:href="#bb"/><use transform="matrix(0.05,0,0,0.05,10,0)" xlink:href="#bc"/><use transform="matrix(0.05,0,0,0.05,20,0)" xlink:href="#aE"/><use transform="matrix(0.05,0,0,0.05,25,0)" xlink:href="#be"/><use transform="matrix(0.05,0,0,0.05,35,0)" xlink:href="#aE"/><use transform="matrix(0.05,0,0,0.05,40,0)" xlink:href="#an"/><use transform="matrix(0.05,0,0,0.05,43.95,0)" xlink:href="#bE"/><use transform="matrix(0.05,0,0,0.05,58.900000000000006,0)" xlink:href="#be"/></g><g id="ad"><use transform="matrix(0.044444444444444446,0,0,0.044444444444444446,0,0)" xlink:href="#aS"/><use transform="matrix(0.044444444444444446,0,0,0.044444444444444446,4.444444444444445,0)" xlink:href="#aH"/><use transform="matrix(0.044444444444444446,0,0,0.044444444444444446,13.333333333333334,0)" xlink:href="#aA"/><use transform="matrix(0.044444444444444446,0,0,0.044444444444444446,18.622222222222224,0)" xlink:href="#aG"/><use transform="matrix(0.044444444444444446,0,0,0.044444444444444446,31.91111111111111,0)" xlink:href="#aB"/><use transform="matrix(0.044444444444444446,0,0,0.044444444444444446,35.422222222222224,0)" xlink:href="#aF"/><use transform="matrix(0.044444444444444446,0,0,0.044444444444444446,44.31111111111112,0)" xlink:href="#aC"/><use transform="matrix(0.044444444444444446,0,0,0.044444444444444446,53.2,0)" xlink:href="#br"/><use transform="matrix(0.044444444444444446,0,0,0.044444444444444446,63.86666666666668,0)" xlink:href="#aI"/><use transform="matrix(0.044444444444444446,0,0,0.044444444444444446,71.86666666666667,0)" xlink:href="#aH"/><use transform="matrix(0.044444444444444446,0,0,0.044444444444444446,80.75555555555556,0)" xlink:href="#aF"/><use transform="matrix(0.044444444444444446,0,0,0.044444444444444446,89.64444444444445,0)" xlink:href="#aS"/><use transform="matrix(0.044444444444444446,0,0,0.044444444444444446,94.08888888888889,0)" xlink:href="#aC"/></g><path d="M177-190C167-65 218 103 67 71c-23-6-38-20-44-43l32-5c15 47 100 32 89-28v-30C133-14 115 1 83 1 29 1 15-40 15-95c0-56 16-97 71-98 29-1 48 16 59 35 1-10 0-23 2-32h30zM94-22c36 0 50-32 50-73 0-42-14-75-50-75-39 0-46 34-46 75s6 73 46 73" id="bF"/><path d="M197 0v-115H63V0H30v-248h33v105h134v-105h34V0h-34" id="bG"/><g id="ae"><use transform="matrix(0.044444444444444446,0,0,0.044444444444444446,0,0)" xlink:href="#au"/><use transform="matrix(0.044444444444444446,0,0,0.044444444444444446,8,0)" xlink:href="#az"/><use transform="matrix(0.044444444444444446,0,0,0.044444444444444446,16.88888888888889,0)" xlink:href="#aA"/><use transform="matrix(0.044444444444444446,0,0,0.044444444444444446,22.177777777777777,0)" xlink:href="#bF"/><use transform="matrix(0.044444444444444446,0,0,0.044444444444444446,31.066666666666666,0)" xlink:href="#az"/><use transform="matrix(0.044444444444444446,0,0,0.044444444444444446,39.955555555555556,0)" xlink:href="#bG"/><use transform="matrix(0.044444444444444446,0,0,0.044444444444444446,51.46666666666667,0)" xlink:href="#aC"/><use transform="matrix(0.044444444444444446,0,0,0.044444444444444446,60.35555555555556,0)" xlink:href="#aA"/><use transform="matrix(0.044444444444444446,0,0,0.044444444444444446,65.64444444444445,0)" xlink:href="#az"/><use transform="matrix(0.044444444444444446,0,0,0.044444444444444446,74.53333333333333,0)" xlink:href="#aA"/><use transform="matrix(0.044444444444444446,0,0,0.044444444444444446,79.82222222222222,0)" xlink:href="#aB"/><use transform="matrix(0.044444444444444446,0,0,0.044444444444444446,83.33333333333333,0)" xlink:href="#az"/></g><path fill="#333" d="M205 0l-28-72H64L36 0H1l101-248h38L239 0h-34zm-38-99l-47-123c-12 45-31 82-46 123h93" id="bH"/><g id="af"><use transform="matrix(0.05,0,0,0.05,0,0)" xlink:href="#bH"/><use transform="matrix(0.05,0,0,0.05,12,0)" xlink:href="#bz"/><use transform="matrix(0.05,0,0,0.05,22,0)" xlink:href="#bd"/><use transform="matrix(0.05,0,0,0.05,25.950000000000003,0)" xlink:href="#an"/><use transform="matrix(0.05,0,0,0.05,29.899999999999995,0)" xlink:href="#bh"/><use transform="matrix(0.05,0,0,0.05,38.9,0)" xlink:href="#bc"/><use transform="matrix(0.05,0,0,0.05,48.9,0)" xlink:href="#bb"/><use transform="matrix(0.05,0,0,0.05,58.900000000000006,0)" xlink:href="#ao"/><use transform="matrix(0.05,0,0,0.05,68.9,0)" xlink:href="#am"/></g><g id="ag"><use transform="matrix(0.044444444444444446,0,0,0.044444444444444446,0,0)" xlink:href="#ar"/><use transform="matrix(0.044444444444444446,0,0,0.044444444444444446,8.88888888888889,0)" xlink:href="#as"/><use transform="matrix(0.044444444444444446,0,0,0.044444444444444446,16.88888888888889,0)" xlink:href="#at"/><use transform="matrix(0.044444444444444446,0,0,0.044444444444444446,25.77777777777778,0)" xlink:href="#aB"/><use transform="matrix(0.044444444444444446,0,0,0.044444444444444446,29.28888888888889,0)" xlink:href="#aW"/><use transform="matrix(0.044444444444444446,0,0,0.044444444444444446,38.17777777777778,0)" xlink:href="#bw"/><use transform="matrix(0.044444444444444446,0,0,0.044444444444444446,48.84444444444445,0)" xlink:href="#ar"/><use transform="matrix(0.044444444444444446,0,0,0.044444444444444446,57.733333333333334,0)" xlink:href="#aR"/><use transform="matrix(0.044444444444444446,0,0,0.044444444444444446,61.24444444444445,0)" xlink:href="#aB"/><use transform="matrix(0.044444444444444446,0,0,0.044444444444444446,64.75555555555556,0)" xlink:href="#au"/><use transform="matrix(0.044444444444444446,0,0,0.044444444444444446,72.75555555555556,0)" xlink:href="#az"/><use transform="matrix(0.044444444444444446,0,0,0.044444444444444446,81.64444444444445,0)" xlink:href="#aW"/><use transform="matrix(0.044444444444444446,0,0,0.044444444444444446,90.53333333333333,0)" xlink:href="#aC"/><use transform="matrix(0.044444444444444446,0,0,0.044444444444444446,99.42222222222223,0)" xlink:href="#aA"/></g><g id="ah"><use transform="matrix(0.044444444444444446,0,0,0.044444444444444446,0,0)" xlink:href="#au"/><use transform="matrix(0.044444444444444446,0,0,0.044444444444444446,8,0)" xlink:href="#ar"/><use transform="matrix(0.044444444444444446,0,0,0.044444444444444446,16.88888888888889,0)" xlink:href="#av"/><use transform="matrix(0.044444444444444446,0,0,0.044444444444444446,21.333333333333336,0)" xlink:href="#bw"/><use transform="matrix(0.044444444444444446,0,0,0.044444444444444446,32,0)" xlink:href="#ar"/><use transform="matrix(0.044444444444444446,0,0,0.044444444444444446,40.888888888888886,0)" xlink:href="#aR"/><use transform="matrix(0.044444444444444446,0,0,0.044444444444444446,44.4,0)" xlink:href="#aB"/><use transform="matrix(0.044444444444444446,0,0,0.044444444444444446,47.91111111111111,0)" xlink:href="#au"/><use transform="matrix(0.044444444444444446,0,0,0.044444444444444446,55.91111111111111,0)" xlink:href="#az"/><use transform="matrix(0.044444444444444446,0,0,0.044444444444444446,64.8,0)" xlink:href="#aW"/><use transform="matrix(0.044444444444444446,0,0,0.044444444444444446,73.68888888888888,0)" xlink:href="#aC"/><use transform="matrix(0.044444444444444446,0,0,0.044444444444444446,82.57777777777777,0)" xlink:href="#aA"/></g></defs></g></svg>